<svg width="24" height="24" viewBox="0 0 24 24" fill="none" xmlns="http://www.w3.org/2000/svg">
<path d="M13.9512 2.71651L14.1336 2.88651L14.8523 3.60526C15.0992 3.85098 15.423 4.00248 15.7675 4.03652L15.9162 4.04384H16.9442C18.548 4.04384 19.8595 5.29801 19.9511 6.87889L19.9562 7.05584V8.08284C19.9562 8.43264 20.0768 8.76892 20.2944 9.0363L20.3936 9.14651L21.1124 9.86531C22.2439 10.9917 22.2944 12.793 21.2578 13.9801L21.1226 14.1252L20.3942 14.8535C20.1492 15.0991 19.9976 15.4232 19.9636 15.7673L19.9562 15.9158V16.9448C19.9562 18.5486 18.7021 19.8592 17.1212 19.9507L16.9442 19.9558H15.9162C15.5677 19.9558 15.231 20.077 14.9634 20.2952L14.8532 20.3945L14.1354 21.1114C13.0102 22.2442 11.2076 22.2945 10.02 21.2575L9.8659 21.1132L9.14878 20.3961C8.90039 20.1494 8.57595 19.9974 8.23245 19.9632L8.08423 19.9558H7.05523C5.45209 19.9558 4.14095 18.7023 4.04934 17.1218L4.04423 16.9448V15.9158C4.04423 15.5679 3.92293 15.2308 3.70485 14.9638L3.60553 14.8538L2.8884 14.1357C1.75582 13.0095 1.70559 11.2069 2.74261 10.0205L2.8779 9.87551L3.60402 9.1484C3.85096 8.89969 4.00279 8.57588 4.03689 8.23152L4.04423 8.08284V7.05584L4.04934 6.87891C4.13756 5.35675 5.35672 4.13721 6.87836 4.04896L7.05523 4.04384H8.08423C8.43271 4.04384 8.76948 3.92296 9.03652 3.70578L9.14653 3.60688L9.8647 2.88772C10.9911 1.75624 12.7935 1.70642 13.9512 2.71651ZM11.0416 3.84263L10.9269 3.9468L10.2057 4.66905C9.68842 5.18264 9.0043 5.48972 8.28205 5.53733L8.08423 5.54384H7.05523C6.26766 5.54384 5.61995 6.14799 5.55041 6.91828L5.54423 7.05584V8.08284C5.54423 8.81201 5.27962 9.51316 4.80233 10.0612L4.66692 10.2068L3.93976 10.935C3.38794 11.4893 3.35581 12.365 3.84346 12.959L3.94793 13.0739L4.66719 13.7941C5.18159 14.3098 5.48988 14.9951 5.53769 15.7179L5.54423 15.9158V16.9448C5.54423 17.7329 6.14793 18.3802 6.91774 18.4497L7.05523 18.4558H8.08423C8.81202 18.4558 9.51377 18.7208 10.062 19.1981L10.2076 19.3335L10.9309 20.0568C11.4891 20.6119 12.365 20.6442 12.9585 20.1566L13.0733 20.0521L13.7942 19.3323C14.3109 18.818 14.9953 18.5101 15.7182 18.4624L15.9162 18.4558H16.9442C17.7329 18.4558 18.3805 17.8524 18.45 17.0824L18.4562 16.9448V15.9158C18.4562 15.187 18.721 14.484 19.1977 13.9383L19.3329 13.7935L20.0604 13.066C20.6122 12.5111 20.6442 11.6358 20.1572 11.042L20.0529 10.9272L19.331 10.2053C18.8171 9.68772 18.5103 9.00428 18.4627 8.281L18.4562 8.08284V7.05584C18.4562 6.26743 17.8522 5.61958 17.0818 5.55002L16.9442 5.54384H15.9162C15.1871 5.54384 14.485 5.27946 13.9381 4.80249L13.7929 4.66717L13.105 3.9774L13.0651 3.94037C12.5108 3.38861 11.635 3.3563 11.0416 3.84263ZM15.0966 14.0424C15.1666 14.1124 15.2266 14.1924 15.2666 14.2824C15.2966 14.3724 15.3166 14.4724 15.3166 14.5724C15.3166 14.6734 15.2966 14.7624 15.2666 14.8524C15.2266 14.9424 15.1666 15.0324 15.0966 15.1024C14.9566 15.2424 14.7666 15.3224 14.5666 15.3224C14.3666 15.3224 14.1766 15.2424 14.0366 15.1024C13.9666 15.0324 13.9166 14.9424 13.8766 14.8524C13.8366 14.7624 13.8166 14.6734 13.8166 14.5724C13.8166 14.4724 13.8366 14.3724 13.8766 14.2824C13.9166 14.1924 13.9666 14.1124 14.0366 14.0424C14.3166 13.7624 14.8166 13.7624 15.0966 14.0424ZM15.1003 8.89921C15.3665 9.16548 15.3907 9.58214 15.1729 9.87575L15.1003 9.95987L9.96026 15.0999C9.66736 15.3928 9.19249 15.3928 8.8996 15.0999C8.63333 14.8336 8.60912 14.4169 8.82698 14.1233L8.8996 14.0392L14.0396 8.89921C14.3325 8.60632 14.8074 8.60632 15.1003 8.89921ZM9.95653 8.90284C10.0965 9.04184 10.1765 9.23284 10.1765 9.43284C10.1765 9.53284 10.1665 9.62184 10.1265 9.71284C10.0865 9.80284 10.0265 9.88284 9.95653 9.96284C9.88653 10.0328 9.80653 10.0818 9.71653 10.1218C9.62653 10.1618 9.52653 10.1828 9.42653 10.1828C9.32653 10.1828 9.23653 10.1618 9.14653 10.1218C9.05653 10.0818 8.96653 10.0328 8.89653 9.96284C8.82653 9.88284 8.77653 9.80284 8.73653 9.71284C8.69653 9.62184 8.67653 9.53284 8.67653 9.43284C8.67653 9.33184 8.69653 9.23284 8.73653 9.14284C8.77653 9.05284 8.82653 8.96284 8.89653 8.90284C9.18653 8.62184 9.67653 8.62184 9.95653 8.90284Z" fill="#EA736D"/>
</svg>
